<svg width="41" height="28" viewBox="0 0 41 28" fill="none" xmlns="http://www.w3.org/2000/svg">
<path d="M41 25.6667C41 26.9553 39.9553 28 38.6667 28H22.8333C21.5447 28 20.5 26.9553 20.5 25.6667C20.5 24.378 21.5447 23.3333 22.8333 23.3333H38.6667C39.9553 23.3333 41 24.378 41 25.6667ZM41 14C41 15.2887 39.9553 16.3333 38.6667 16.3333H2.33333C1.04467 16.3333 0 15.2887 0 14C0 12.7113 1.04467 11.6667 2.33333 11.6667H38.6667C39.9553 11.6667 41 12.7113 41 14ZM41 2.33333C41 3.622 39.9553 4.66667 38.6667 4.66667H2.33333C1.04467 4.66667 0 3.622 0 2.33333C0 1.04467 1.04467 0 2.33333 0H38.6667C39.9553 0 41 1.04467 41 2.33333Z" fill="white"/>
</svg>
