<svg width="30" height="30" viewBox="0 0 30 30" fill="none" xmlns="http://www.w3.org/2000/svg">
<path d="M28.6561 26.2344V15.4125C28.6562 14.6596 28.5026 13.9147 28.2046 13.2232C27.9067 12.5318 27.4707 11.9084 26.9235 11.3913L16.728 1.75596C16.2145 1.27049 15.5347 1 14.8281 1C14.1214 1 13.4416 1.27049 12.9281 1.75596L2.73266 11.3913C2.18537 11.9084 1.74941 12.5318 1.45148 13.2232C1.15355 13.9147 0.99992 14.6596 1 15.4125V26.2344C1 26.9679 1.29138 27.6713 1.81003 28.19C2.32868 28.7086 3.03213 29 3.76561 29H25.8905C26.624 29 27.3274 28.7086 27.8461 28.19C28.3647 27.6713 28.6561 26.9679 28.6561 26.2344Z" stroke="white" stroke-width="2" stroke-linecap="round" stroke-linejoin="round"/>
</svg>
