<svg width="61" height="62" viewBox="0 0 61 62" fill="none" xmlns="http://www.w3.org/2000/svg">
<path d="M52.0316 9.13223C46.4619 3.38657 38.7627 0.267334 30.8996 0.267334C14.1908 0.267334 0.757973 13.893 0.921656 30.4736C0.921656 35.7269 2.39598 40.8162 4.85333 45.4127L0.594055 61.0084L16.484 56.9042C20.9069 59.3669 25.8212 60.516 30.7359 60.516C47.281 60.516 60.7138 46.8902 60.7138 30.3098C60.7138 22.2655 57.601 14.7139 52.0316 9.13223ZM30.8996 55.427C26.4766 55.427 22.0537 54.278 18.2859 51.9797L17.3031 51.4871L7.80197 53.9495L10.2591 44.5923L9.60389 43.6071C2.39598 31.9515 5.83613 16.5196 17.6307 9.29626C29.4253 2.07312 44.66 5.52066 51.8679 17.3405C59.0756 29.1604 55.6354 44.4278 43.8411 51.6511C40.0731 54.1135 35.4865 55.427 30.8996 55.427ZM45.3152 37.2049L43.5132 36.384C43.5132 36.384 40.8924 35.2348 39.2542 34.4139C39.0903 34.4139 38.9266 34.2497 38.7627 34.2497C38.2712 34.2497 37.9436 34.4139 37.616 34.5782C37.616 34.5782 37.4523 34.7422 35.1588 37.3689C34.9949 37.6972 34.6673 37.8615 34.3397 37.8615H34.1758C34.0121 37.8615 33.6845 37.6972 33.5206 37.5332L32.7015 37.2049C30.8996 36.384 29.2616 35.3988 27.9509 34.0856C27.6233 33.7573 27.1318 33.429 26.8042 33.1007C25.6575 31.9515 24.5108 30.6381 23.6919 29.1606L23.528 28.8323C23.3643 28.668 23.3643 28.504 23.2004 28.1757C23.2004 27.8474 23.2004 27.5191 23.3643 27.3548C23.3643 27.3548 24.0195 26.5339 24.5108 26.0416C24.8386 25.7131 25.0023 25.2207 25.3299 24.8924C25.6575 24.3999 25.8214 23.7433 25.6575 23.2507C25.4938 22.4298 23.528 17.9974 23.0367 17.0124C22.7089 16.5199 22.3815 16.3558 21.89 16.1916H20.088C19.7602 16.1916 19.4328 16.3558 19.105 16.3558L18.9411 16.5199C18.6135 16.6841 18.2859 17.0124 17.9583 17.1765C17.6307 17.505 17.4668 17.8331 17.1392 18.1616C15.9925 19.6391 15.3373 21.4449 15.3373 23.2507C15.3373 24.5639 15.6649 25.8773 16.1564 27.0265L16.3203 27.5191C17.7946 30.6381 19.7602 33.429 22.3815 35.8914L23.0367 36.548C23.528 37.0406 24.0195 37.3689 24.3471 37.8612C27.7873 40.8164 31.7187 42.9505 36.1416 44.0997C36.6332 44.2637 37.2884 44.2637 37.7799 44.428H39.4179C40.237 44.428 41.2198 44.0997 41.8752 43.7714C42.3665 43.4431 42.6941 43.4431 43.0217 43.1148L43.3496 42.7863C43.6772 42.4579 44.0048 42.2939 44.3324 41.9656C44.66 41.6373 44.9876 41.309 45.1515 40.9805C45.4791 40.3239 45.6428 39.503 45.8067 38.6823V37.5332C45.8067 37.5332 45.6428 37.3689 45.3152 37.2049Z" fill="white"/>
</svg>
